<svg id="Capa_1" enable-background="new 0 0 512 512" height="512" viewBox="0 0 512 512" width="512" xmlns="http://www.w3.org/2000/svg"><g><g><path d="m497 512h-482c-8.291 0-15-6.709-15-15v-452c0-8.291 6.709-15 15-15h91c8.291 0 15 6.709 15 15v15h60v-15c0-8.291 6.709-15 15-15h120c8.291 0 15 6.709 15 15v15h60v-15c0-8.291 6.709-15 15-15h91c8.291 0 15 6.709 15 15v452c0 8.291-6.709 15-15 15z" fill="#fabe2c"/></g><path d="m256 512h241c8.291 0 15-6.709 15-15v-452c0-8.291-6.709-15-15-15h-91c-8.291 0-15 6.709-15 15v15h-60v-15c0-8.291-6.709-15-15-15h-60z" fill="#ff9100"/><path d="m451 136v195l-57.673 61.237-62.327 58.763h-255c-8.284 0-15-6.716-15-15v-300c0-8.284 6.716-15 15-15h360c8.284 0 15 6.716 15 15z" fill="#e6f7ff"/><path d="m256 451h75l62.327-58.764 57.673-61.236v-195c0-8.284-6.716-15-15-15h-180z" fill="#cef"/><g><path d="m451 301v30c0 66.274-53.726 120-120 120h-30c32.999 0 60-27.001 60-60v-15c0-8.284 6.716-15 15-15h15c32.999 0 60-27.001 60-60z" fill="#b3ccff"/></g><g id="Calendar_1_"><g><path d="m181 241h-30c-8.291 0-15-6.709-15-15s6.709-15 15-15h30c8.291 0 15 6.709 15 15s-6.709 15-15 15z" fill="#9ef"/></g><g><path d="m271 241h-30c-8.291 0-15-6.709-15-15s6.709-15 15-15h30c8.291 0 15 6.709 15 15s-6.709 15-15 15z" fill="#9ef"/></g><g><path d="m361 241h-30c-8.291 0-15-6.709-15-15s6.709-15 15-15h30c8.291 0 15 6.709 15 15s-6.709 15-15 15z" fill="#80bfff"/></g><g><path d="m361 301h-30c-8.291 0-15-6.709-15-15s6.709-15 15-15h30c8.291 0 15 6.709 15 15s-6.709 15-15 15z" fill="#80bfff"/></g><g><path d="m271 301h-30c-8.291 0-15-6.709-15-15s6.709-15 15-15h30c8.291 0 15 6.709 15 15s-6.709 15-15 15z" fill="#9ef"/></g><g><path d="m181 301h-30c-8.291 0-15-6.709-15-15s6.709-15 15-15h30c8.291 0 15 6.709 15 15s-6.709 15-15 15z" fill="#9ef"/></g><g><path d="m181 361h-30c-8.291 0-15-6.709-15-15s6.709-15 15-15h30c8.291 0 15 6.709 15 15s-6.709 15-15 15z" fill="#9ef"/></g><g><path d="m271 361h-30c-8.291 0-15-6.709-15-15s6.709-15 15-15h30c8.291 0 15 6.709 15 15s-6.709 15-15 15z" fill="#9ef"/></g><g><path d="m196 90h-90c-8.291 0-15-6.709-15-15v-60c0-8.291 6.709-15 15-15h90c8.291 0 15 6.709 15 15v60c0 8.291-6.709 15-15 15z" fill="#704c55"/></g><g><path d="m406 90h-90c-8.291 0-15-6.709-15-15v-60c0-8.291 6.709-15 15-15h90c8.291 0 15 6.709 15 15v60c0 8.291-6.709 15-15 15z" fill="#5b362a"/></g></g><g fill="#80bfff"><path d="m256 361h15c8.291 0 15-6.709 15-15s-6.709-15-15-15h-15z"/><path d="m256 301h15c8.291 0 15-6.709 15-15s-6.709-15-15-15h-15z"/><path d="m256 241h15c8.291 0 15-6.709 15-15s-6.709-15-15-15h-15z"/></g></g></svg>