<svg id="Capa_1" enable-background="new 0 0 512 512" height="512" viewBox="0 0 512 512" width="512" xmlns="http://www.w3.org/2000/svg"><g><path d="m191 486v-90c0-8.284 6.716-15 15-15h100c8.284 0 15 6.716 15 15v90z" fill="#08475e"/><path d="m306 381h-50v105h65v-90c0-8.284-6.716-15-15-15z" fill="#05303d"/><path d="m356 501h-200c-8.284 0-15-6.716-15-15s6.716-15 15-15h200c8.284 0 15 6.716 15 15s-6.716 15-15 15z" fill="#0a789b"/><path d="m356 471h-100v30h100c8.284 0 15-6.716 15-15s-6.716-15-15-15z" fill="#08475e"/><path d="m497 11h-482c-8.284 0-15 6.716-15 15v370c0 8.284 6.716 15 15 15h482c8.284 0 15-6.716 15-15v-370c0-8.284-6.716-15-15-15z" fill="#0a789b"/><path d="m497 11h-241v400h241c8.284 0 15-6.716 15-15v-370c0-8.284-6.716-15-15-15z" fill="#08475e"/><path d="m30 41h452v260h-452z" fill="#acceff"/><path d="m256 41h226v260h-226z" fill="#4793ff"/><g fill="#08475e"><path d="m430 126h-90c-8.284 0-15-6.716-15-15s6.716-15 15-15h90c8.284 0 15 6.716 15 15s-6.716 15-15 15z"/><path d="m430 186h-90c-8.284 0-15-6.716-15-15s6.716-15 15-15h90c8.284 0 15 6.716 15 15s-6.716 15-15 15z"/><path d="m430 246h-90c-8.284 0-15-6.716-15-15s6.716-15 15-15h90c8.284 0 15 6.716 15 15s-6.716 15-15 15z"/><path d="m228 266c-8.284 0-15-6.716-15-15v-30c0-8.284 6.716-15 15-15s15 6.716 15 15v30c0 8.284-6.716 15-15 15z"/><path d="m156 266c-8.284 0-15-6.716-15-15v-30c0-8.284 6.716-15 15-15s15 6.716 15 15v30c0 8.284-6.716 15-15 15z"/></g><g><path d="m120.698 82.997c-.004-.02-.009-.039-.013-.059l-.043-.192-.006.001c-1.487-6.718-7.47-11.747-14.636-11.747h-30c-8.284 0-15 6.716-15 15s6.716 15 15 15h17.968l3.333 15 17.699 13 13.032-13z" fill="#ff405c"/><path d="m279.7 121.614c-2.847-3.549-7.15-5.614-11.7-5.614h-2-137.968-30.731l24.056 108.254c1.526 6.863 7.613 11.746 14.643 11.746h112c7.03 0 13.117-4.883 14.643-11.746l20-90c.987-4.441-.095-9.091-2.943-12.64z" fill="#0a789b"/></g><path d="m268 116h-12v117.675c3.29-2.078 5.75-5.406 6.643-9.421l20-90c.987-4.441-.095-9.091-2.942-12.64s-7.151-5.614-11.701-5.614z" fill="#08475e"/><path d="m235.968 206h-87.936l-13.333-60h114.602z" fill="#f4f1f1"/></g></svg>