<svg id="Capa_1" enable-background="new 0 0 512 512" height="512" viewBox="0 0 512 512" width="512" xmlns="http://www.w3.org/2000/svg"><g><g><g><g><g><path d="m346 496.5h-30c-16.569 0-30-13.431-30-30v-60c0-16.569 13.431-30 30-30h26.628c29.904 0 57.684 20.366 62.537 49.874 6.176 37.546-22.77 70.126-59.165 70.126z" fill="#29376d"/></g></g></g></g><g><g><g><g><path d="m196 496.5h-26.628c-29.904 0-57.684-20.366-62.537-49.874-6.176-37.546 22.77-70.126 59.165-70.126h30c16.569 0 30 13.431 30 30v60c0 16.569-13.431 30-30 30z" fill="#47568c"/></g></g></g></g><g id="Speedometer_1_"><g><path d="m256 346.5c-24.814 0-45-20.186-45-45 0-17.344 23.408-99.434 30.586-124.175 3.75-12.832 25.078-12.832 28.828 0 7.178 24.741 30.586 106.831 30.586 124.175 0 24.814-20.186 45-45 45z" fill="#f9b"/></g><g><g><path d="m316 496.5h-120v-120h120z" fill="#61729b"/></g></g></g><path d="m301 301.5c0-17.344-23.408-99.434-30.586-124.175-1.875-6.416-8.145-9.624-14.414-9.624v178.799c24.814 0 45-20.186 45-45z" fill="#f69"/><path d="m256 376.5h60v120h-60z" fill="#47568c"/><g id="Speedometer_2_"><g><path d="m492.38 172.59-46.38 47.91-28.36-.72-20.895-.532c-9.427-.24-17.923-5.552-22.482-13.807-.024-.044-.048-.087-.073-.131-3.71-6.71-7.98-13.07-12.76-19.02-2.956-3.703-.105-14.423-3.43-17.79-3.716-3.762-13.653-.126-17.79-3.43-5.95-4.78-12.31-9.05-19.02-12.76-.044-.024-.087-.048-.131-.073-8.399-4.639-14.108-12.973-15.148-22.512l-1.631-14.965-4.28-39.26 53.64-40.72c61.34 25.3 112.18 74.42 138.74 137.81z" fill="#f9b"/><path d="m203.809 129.833c.31 9.305-4.718 17.903-12.868 22.404-.044.024-.087.048-.131.073-6.71 3.71-13.07 7.98-19.02 12.76-3.767 3.003-13.37-.96-16.79 2.43-3.698 3.666-1.183 14.717-4.43 18.79-4.78 5.95-9.05 12.31-12.76 19.02-.024.044-.049.087-.073.131-4.659 8.383-13.006 14.067-22.546 15.056l-15.271 1.583-32.92 3.42-47.37-52.91c25.59-61.08 75.06-111.55 138.73-137.81l43.64 40.72.92 27.67z" fill="#9ef"/><path d="m512 270.5c0 31.68-6.87 64.49-20.42 97.5-1.52 3.69-4.44 6.62-8.12 8.15-1.85.77-3.8 1.15-5.76 1.15-1.95 0-3.91-.38-5.75-1.15l-83.1-34.5c-3.69-1.53-6.62-4.47-8.13-8.17-1.52-3.7-1.49-7.85.07-11.53 4.88-11.53 8.03-23.74 9.41-36.45.53-4.93 7.8-8.93 7.8-14s-7.28-11.07-7.84-16c-.84-7.71-2.35-15.22-4.47-22.49-.014-.048-.028-.097-.041-.145-2.334-8.148 1.685-16.76 9.516-20.004l40.996-16.981 56.22-23.29c12.639 30.16 19.619 63.24 19.619 97.91z" fill="#f69"/><path d="m353.64 34.78-23.02 55.56-16.907 40.816c-3.257 7.864-11.894 12.034-20.078 9.696l-.145-.041c-7.27-2.12-14.78-3.63-22.49-4.47-4.93-.56-7.93-13.84-13-13.84s-12.07 13.28-17 13.84c-7.71.84-15.22 2.35-22.49 4.47-.048.014-.097.028-.145.041-8.148 2.334-16.76-1.685-20.004-9.516l-16.981-40.996-23.02-55.56c30.1-12.42 63.08-19.28 97.64-19.28s67.54 6.86 97.64 19.28z" fill="#fabe2c"/><path d="m258 122.5c5.07 0 8.07 13.28 13 13.84 7.71.84 15.22 2.35 22.49 4.47l.145.041c8.184 2.339 16.821-1.832 20.078-9.695l16.907-40.816 23.02-55.56c-30.1-12.42-63.08-19.28-97.64-19.28v107.581c.692-.369 1.361-.581 2-.581z" fill="#fabe2c"/><path d="m131.28 333.48c-1.51 3.7-4.44 6.64-8.13 8.17l-83.1 34.5c-3.68 1.53-7.82 1.53-11.51 0-3.68-1.53-6.6-4.46-8.12-8.15-13.55-33.01-20.42-65.82-20.42-97.5 0-34.67 6.98-67.75 19.63-97.91l56.21 23.28 40.988 16.978c7.836 3.246 11.859 11.864 9.523 20.017-.014.048-.028.097-.041.145-2.12 7.26-3.63 14.78-4.47 22.49-.56 4.93-12.84 10.93-12.84 16s12.27 9.07 12.8 14c1.38 12.71 4.53 24.92 9.41 36.45 1.56 3.68 1.59 7.83.07 11.53z" fill="#97de3d"/></g></g><g><path d="m218.51 140.81c-4.84 1.38-9.57 3.05-14.17 4.96-4.65 1.93-9.16 4.12-13.53 6.54l-17.55-42.37c-3.17-7.65.46-16.43 8.12-19.6 7.65-3.17 16.42.47 19.59 8.12l1.95 4.71z" fill="#47568c"/></g><g><g><path d="m338.74 109.94-17.55 42.37c-4.37-2.42-8.88-4.61-13.53-6.54-4.6-1.91-9.33-3.58-14.17-4.96l10.79-26.05 6.75-16.3c3.17-7.65 11.94-11.29 19.59-8.12 7.66 3.17 11.29 11.95 8.12 19.6z" fill="#29376d"/></g></g><g><g><path d="m137.81 205.31c-2.43 4.36-4.61 8.88-6.54 13.52-1.91 4.6-3.58 9.34-4.96 14.18l-26.39-10.93-15.96-6.61c-7.65-3.17-11.29-11.94-8.12-19.59v-.01c3.18-7.65 11.95-11.28 19.6-8.11z" fill="#47568c"/></g></g><g><path d="m428.04 215.47-10.4 4.31-31.95 13.23c-1.38-4.84-3.05-9.57-4.96-14.17-1.93-4.65-4.12-9.16-6.54-13.53l42.37-17.55c7.65-3.17 16.43.46 19.6 8.12 3.17 7.65-.47 16.42-8.12 19.59z" fill="#29376d"/></g><g><g><path d="m171.79 165.07c-7.84 6.25-14.97 13.38-21.22 21.22l-32.46-32.46c-5.85-5.86-5.85-15.36 0-21.22 5.86-5.85 15.36-5.85 21.22 0z" fill="#47568c"/></g></g><g><g><path d="m121 270.5c0 5.07.27 10.07.8 15h-45.8c-8.28 0-15-6.72-15-15s6.72-15 15-15h45.84c-.56 4.93-.84 9.93-.84 15z" fill="#47568c"/></g></g><g><path d="m451 270.5c0 8.28-6.72 15-15 15h-45.8c.53-4.93.8-9.93.8-15s-.28-10.07-.84-15h45.84c8.28 0 15 6.72 15 15z" fill="#29376d"/></g><g><path d="m393.89 153.83-32.46 32.46c-6.26-7.84-13.38-14.96-21.22-21.22l32.46-32.46c5.86-5.85 15.36-5.85 21.22 0 5.85 5.86 5.85 15.36 0 21.22z" fill="#29376d"/></g><g><g><path d="m271 90.5v45.84c-4.93-.56-9.93-.84-15-.84s-10.07.28-15 .84v-45.84c0-8.28 6.72-15 15-15s15 6.72 15 15z" fill="#47568c"/><path d="m271 136.34v-45.84c0-8.28-6.72-15-15-15v60c5.07 0 10.07.28 15 .84z" fill="#29376d"/></g></g></g></svg>