<svg id="Capa_1" enable-background="new 0 0 512 512" height="512" viewBox="0 0 512 512" width="512" xmlns="http://www.w3.org/2000/svg"><g><path d="m136 10c24.813 0 45 20.187 45 45v22c0 8.284-6.716 15-15 15s-15-6.716-15-15v-22c0-8.271-6.729-15-15-15l-20-13z" fill="#ffe278"/><path d="m376 10c24.813 0 45 20.187 45 45v22c0 8.284-6.716 15-15 15s-15-6.716-15-15v-22c0-8.271-6.729-15-15-15l-20-15z" fill="#ffb454"/><path d="m497 502h-482c-8.284 0-15-6.716-15-15v-410c0-8.284 6.716-15 15-15h482c8.284 0 15 6.716 15 15v410c0 8.284-6.716 15-15 15z" fill="#f4f1f1"/><path d="m497 62h-241v440h241c8.284 0 15-6.716 15-15v-410c0-8.284-6.716-15-15-15z" fill="#dad5d3"/><path d="m431 166h-350c-8.284 0-15 6.716-15 15v240c0 8.284 6.716 15 15 15h350c8.284 0 15-6.716 15-15v-240c0-8.284-6.716-15-15-15z" fill="#0a789b"/><path d="m431 166h-175v270h175c8.284 0 15-6.716 15-15v-240c0-8.284-6.716-15-15-15z" fill="#08475e"/><path d="m176 276h60v50h-60z" fill="#f4f1f1"/><path d="m266 276h60v50h-60z" fill="#dad5d3"/><path d="m356 276h60v50h-60z" fill="#dad5d3"/><path d="m176 196h240v50h-240z" fill="#ff405c"/><path d="m256 196h160v50h-160z" fill="#d0004f"/><path d="m96 196h50v50h-50z" fill="#ff405c"/><path d="m96 276h50v130h-50z" fill="#acceff"/><path d="m176 356h60v50h-60z" fill="#f4f1f1"/><path d="m266 356h60v50h-60z" fill="#dad5d3"/><path d="m356 356h60v50h-60z" fill="#dad5d3"/><path d="m136 40c-8.271 0-15 6.729-15 15v40c0 8.271 6.729 15 15 15 8.284 0 15 6.716 15 15s-6.716 15-15 15c-24.813 0-45-20.187-45-45v-40c0-24.813 20.187-45 45-45z" fill="#ffe278"/><path d="m376 40c-8.271 0-15 6.729-15 15v40c0 8.271 6.729 15 15 15 8.284 0 15 6.716 15 15s-6.716 15-15 15c-24.813 0-45-20.187-45-45v-40c0-24.813 20.187-45 45-45z" fill="#ffb454"/></g></svg>