<svg id="Layer_1" enable-background="new 0 0 512 512" height="512" viewBox="0 0 512 512" width="512" xmlns="http://www.w3.org/2000/svg"><g><g><path d="m497.713 512c-3.335 0-6.634-1.167-9.272-3.414l-71.883-61.264h-178.19c-23.638 0-42.868-19.231-42.868-42.868v-183.958c0-23.638 19.23-42.868 42.868-42.868h230.764c23.638 0 42.868 19.231 42.868 42.868v277.215c0 5.573-3.24 10.638-8.3 12.974-1.914.883-3.958 1.315-5.987 1.315z" fill="#ff8856"/></g><g><path d="m49.002 399c-3.799 0-7.528-1.444-10.366-4.157-4.103-3.921-5.641-9.82-3.976-15.245l16.311-53.139c-32.938-36.006-50.971-82.338-50.971-131.459 0-107.523 87.477-195 195-195s195 87.477 195 195-87.477 195-195 195c-26.258 0-51.663-5.115-75.608-15.212l-65.347 23.338c-1.646.588-3.352.874-5.043.874z" fill="#fff4f4"/></g><path d="m195.5.006v389.987c107.294-.271 194.5-87.637 194.5-194.993s-87.206-194.722-194.5-194.994z" fill="#f6efea"/><path d="m284 104.598h-1.16c-17.904 0-32.47 14.566-32.47 32.471v23.287c0 18.055-14.689 32.744-32.744 32.744h-7.126v-72.336c0-8.284-6.716-15-15-15s-15 6.716-15 15v72.336h-7.125c-18.055 0-32.743-14.688-32.743-32.744v-23.287c0-17.904-14.566-32.471-32.471-32.471h-1.161c-8.284 0-15 6.716-15 15s6.716 15 15 15h1.161c1.339 0 2.471 1.131 2.471 2.471v23.287c0 34.597 28.146 62.744 62.743 62.744h7.125v67.4c0 8.284 6.716 15 15 15s15-6.716 15-15v-67.402h7.125c34.597 0 62.744-28.146 62.744-62.744v-23.287c0-1.339 1.131-2.471 2.47-2.471h1.161c8.284 0 15-6.716 15-15s-6.716-14.998-15-14.998z" fill="#7dd5f4"/><path d="m284 104.598h-1.16c-17.904 0-32.47 14.566-32.47 32.471v23.287c0 18.055-14.689 32.744-32.744 32.744h-7.126v-72.336c0-8.284-6.716-15-15-15v199.736c8.284 0 15-6.716 15-15v-67.402h7.125c34.597 0 62.744-28.146 62.744-62.744v-23.287c0-1.339 1.131-2.471 2.47-2.471h1.161c8.284 0 15-6.716 15-15s-6.716-14.998-15-14.998z" fill="#4793ff"/></g></svg>