<svg id="Layer_1" enable-background="new 0 0 512 512" height="512" viewBox="0 0 512 512" width="512" xmlns="http://www.w3.org/2000/svg"><g><path d="m401.976 440.069c-1.282-36.917-20.398-84.7-51.137-127.817-9.919-13.914-30.192-39.807-54.076-56.252 23.883-16.445 44.156-42.337 54.076-56.252 30.738-43.118 49.855-90.9 51.137-127.817.006-.172.009-.344.009-.517l.015-56.41c.001-3.979-1.579-7.795-4.392-10.609-2.813-2.813-6.629-4.395-10.608-4.395h-262c-3.981 0-7.799 1.583-10.613 4.399-2.813 2.817-4.392 6.636-4.387 10.618l.063 56c0 .168.003.336.009.503 1.282 36.929 20.385 84.781 51.1 128.004 9.928 13.972 30.228 39.982 54.138 56.476-23.91 16.494-44.211 42.504-54.138 56.476-30.714 43.224-49.817 91.076-51.1 128.004-.006.167-.009.335-.009.503l-.063 56c-.004 3.981 1.574 7.801 4.387 10.618 2.814 2.816 6.632 4.399 10.613 4.399h262c3.979 0 7.795-1.581 10.608-4.395 2.813-2.813 4.393-6.63 4.392-10.609l-.015-56.41c0-.172-.003-.345-.009-.517z" fill="#fff4f4"/><path d="m401.976 440.069c-1.282-36.917-20.398-84.7-51.137-127.817-9.919-13.914-30.192-39.807-54.076-56.252 23.883-16.445 44.156-42.337 54.076-56.252 30.738-43.118 49.855-90.9 51.137-127.817.006-.172.009-.344.009-.517l.015-56.41c.001-3.979-1.579-7.795-4.392-10.609-2.813-2.813-6.629-4.395-10.608-4.395h-131v512h131c3.979 0 7.795-1.581 10.608-4.395 2.813-2.813 4.393-6.63 4.392-10.609l-.015-56.41c0-.172-.003-.345-.009-.517z" fill="#f6efea"/><path d="m371.985 440.862c-.837-22.333-10.256-50.873-25.661-79.309h-75.324v-125.03c14.841-7.616 34.714-25.156 55.411-54.189 3.376-4.736 6.603-9.546 9.667-14.398h-159.971c3.021 4.788 6.197 9.536 9.52 14.211 20.689 29.115 40.546 46.709 55.374 54.353v125.053h-75.132c-15.49 28.597-24.965 57.301-25.805 79.726l-.047 40.721h231.979z" fill="#fdbf00"/><path d="m326.411 182.334c3.376-4.736 6.603-9.546 9.667-14.398h-80.078v314.064h115.996l-.011-41.138c-.837-22.333-10.256-50.873-25.661-79.309h-75.324v-125.03c14.841-7.616 34.714-25.156 55.411-54.189z" fill="#ff8856"/><g><path d="m403 90h-294c-24.813 0-45-20.187-45-45v-30c0-8.284 6.716-15 15-15h354c8.284 0 15 6.716 15 15v30c0 24.813-20.187 45-45 45z" fill="#007a9f"/></g><g><path d="m433 512h-354c-8.284 0-15-6.716-15-15v-30c0-24.813 20.187-45 45-45h294c24.813 0 45 20.187 45 45v30c0 8.284-6.716 15-15 15z" fill="#007a9f"/></g><g fill="#00607f"><path d="m433 0h-177v90h147c24.813 0 45-20.187 45-45v-30c0-8.284-6.716-15-15-15z"/><path d="m403 422h-147v90h177c8.284 0 15-6.716 15-15v-30c0-24.813-20.187-45-45-45z"/></g></g></svg>