<svg id="Capa_1" enable-background="new 0 0 512.002 512.002" height="512" viewBox="0 0 512.002 512.002" width="512" xmlns="http://www.w3.org/2000/svg"><g><g><g><path d="m427.902 23.401c-7.5-14.4-22.8-23.4-39.3-23.4h-132.6c-24.9 0-45 20.1-45 45v61c0 24.9 20.1 45 45 45h45l15-30 15 30h15c8.4 0 15 6.6 15 15v118c-34.04-9.59-69.61-12.47-105.04-8.8-8.9.91-17.8 2.25-26.66 4-33.9-32.1-81-44.7-127.8-32.7-47.7 11.7-86.41 50.4-97.81 98.1-9.6 41.4-.3 83.7 25.8 116.4 25.8 32.4 65.11 51 106.51 51 42.07 0 81.8-3.07 119.96-8.99 73.87-11.45 141.84-33.55 209.51-64.61 26.849-12.184 21.432-9.486 38.13-17.9 5.1-2.7 8.4-7.8 8.4-13.5v-65.1c0-111.3-29.8-222.8-84.1-318.5z" fill="#feede6"/></g></g><path d="m512.002 341.901v65.1c0 5.7-3.3 10.8-8.4 13.5-16.698 8.414-11.278 5.715-38.13 17.9-67.67 31.06-135.64 53.16-209.51 64.61v-227.81c35.43-3.67 71-.79 105.04 8.8v-118c0-8.4-6.6-15-15-15h-15l-15-30-15 30h-45c-.01 0-.03-.01-.04-.01v-150.98c.01 0 .03-.01.04-.01h132.6c16.5 0 31.8 9 39.3 23.4 54.3 95.7 84.1 207.2 84.1 318.5z" fill="#fce0d3"/><g id="Biceps_1_"><g><path d="m331.002 76.001v75h-30v-60h-15c-8.401 0-15-6.599-15-15s6.599-15 15-15h30c8.401 0 15 6.599 15 15z" fill="#f89580"/></g></g></g></svg>