<svg id="Layer_1" enable-background="new 0 0 512 512" height="512" viewBox="0 0 512 512" width="512" xmlns="http://www.w3.org/2000/svg"><g><path d="m256 479.867c-2.726 0-5.451-.742-7.861-2.225-33.099-20.366-129.993-90.622-181.429-181.626-22.944-40.592-34.577-81.084-34.577-120.35 0-90.329 56.453-143.533 127.467-143.533 10.812 0 63.886-.31 96.4 55.63 32.514-55.94 85.588-55.63 96.4-55.63 71.061 0 127.467 53.254 127.467 143.533 0 39.266-11.633 79.757-34.577 120.35-51.396 90.932-148.369 161.284-181.429 181.626-2.41 1.483-5.135 2.225-7.861 2.225z" fill="#f0142d"/><path d="m256 479.867v-392.104c32.514-55.94 85.588-55.63 96.4-55.63 71.061 0 127.467 53.254 127.467 143.533 0 39.266-11.633 79.757-34.577 120.35-51.396 90.932-148.369 161.284-181.429 181.626-2.41 1.483-5.135 2.225-7.861 2.225z" fill="#b40000"/><path d="m272.067 351.334c-5.682 0-10.875-3.21-13.417-8.292l-66.917-133.834-34.784 69.567c-2.541 5.082-7.735 8.292-13.417 8.292h-128.532c-8.284 0-15-6.716-15-15s6.716-15 15-15h119.263l44.054-88.108c2.541-5.082 7.735-8.292 13.417-8.292s10.875 3.21 13.417 8.292l66.917 133.833 50.851-101.708c2.541-5.082 7.735-8.292 13.417-8.292 5.682 0 10.876 3.21 13.417 8.292l27.987 55.982h119.26c8.284 0 15 6.716 15 15s-6.716 15-15 15h-128.533c-5.682 0-10.876-3.21-13.417-8.292l-18.717-37.439-50.85 101.706c-2.54 5.082-7.734 8.293-13.416 8.293z" fill="#3c3c37"/><path d="m497 257.067h-119.262l-27.987-55.982c-2.541-5.082-7.735-8.292-13.417-8.292s-10.876 3.21-13.417 8.292l-50.851 101.708-16.066-32.134v67.082l2.65 5.301c2.541 5.082 7.735 8.292 13.417 8.292s10.876-3.21 13.417-8.292l50.85-101.706 18.717 37.439c2.541 5.082 7.735 8.292 13.417 8.292h128.532c8.284 0 15-6.716 15-15s-6.716-15-15-15z" fill="#141e14"/></g></svg>