<svg height="512pt" viewBox="0 -4 512 512" width="512pt" xmlns="http://www.w3.org/2000/svg"><path d="m149.609375 39.394531c-13.023437-10.234375-21.003906-16.875-21.003906-24.15625 0-8.414062-6.824219-15.238281-15.238281-15.238281-8.417969 0-15.238282 6.824219-15.238282 15.238281v234.914063c-9.835937-6.105469-21.421875-9.648438-33.828125-9.648438-35.453125 0-64.300781 28.847656-64.300781 64.304688 0 35.453125 28.847656 64.300781 64.300781 64.300781 35.457031 0 64.300781-28.847656 64.300781-64.300781v-243.160156c.726563.570312 1.453126 1.140624 2.171876 1.707031 24.683593 19.398437 50.207031 39.457031 33.710937 99.84375-2.21875 8.121093 2.5625 16.5 10.679687 18.714843 8.121094 2.21875 16.5-2.5625 18.71875-10.679687 21.828126-79.890625-17.953124-111.152344-44.273437-131.839844zm0 0" fill="#27488f"/><path d="m512 60.914062c0-5.09375-2.546875-9.851562-6.785156-12.675781-4.238282-2.828125-9.605469-3.347656-14.308594-1.390625l-213.660156 88.949219c-5.679688 2.363281-9.378906 7.914063-9.378906 14.066406v234.917969c-9.835938-6.109375-21.425782-9.648438-33.832032-9.648438-35.453125 0-64.300781 28.84375-64.300781 64.300782 0 35.457031 28.847656 64.300781 64.300781 64.300781 35.421875 0 64.242188-28.785156 64.300782-64.195313 0-.035156.003906-.074218.003906-.113281v-209.042969l183.183594-76.257812v141.703125c-9.832032-6.109375-21.421876-9.648437-33.824219-9.648437-35.457031 0-64.300781 28.84375-64.300781 64.300781s28.84375 64.300781 64.300781 64.300781c35.453125 0 64.300781-28.84375 64.300781-64.300781zm0 0" fill="#27488f"/><g fill="#1b3b6b"><path d="m128.601562 304.808594v-243.160156c.726563.570312 1.453126 1.140624 2.171876 1.707031 24.683593 19.398437 50.207031 39.457031 33.710937 99.84375-2.21875 8.121093 2.5625 16.5 10.679687 18.714843 8.121094 2.21875 16.5-2.5625 18.71875-10.679687 21.824219-79.890625-17.953124-111.152344-44.277343-131.839844-13.019531-10.234375-21.003907-16.875-21.003907-24.15625 0-8.414062-6.820312-15.238281-15.234374-15.238281-8.417969 0-15.238282 6.824219-15.238282 15.238281v234.917969c-9.835937-6.109375-21.421875-9.648438-33.828125-9.648438v128.601563c35.457031 0 64.300781-28.847656 64.300781-64.300781zm0 0"/><path d="m505.214844 48.238281c-4.238282-2.828125-9.605469-3.347656-14.308594-1.390625l-113.019531 47.050782v103.371093l103.636719-43.144531v141.703125c-9.832032-6.109375-21.421876-9.648437-33.824219-9.648437-35.457031 0-64.300781 28.84375-64.300781 64.300781s28.84375 64.300781 64.300781 64.300781c35.453125 0 64.300781-28.84375 64.300781-64.300781v-289.566407c0-5.09375-2.546875-9.851562-6.785156-12.675781zm0 0"/></g></svg>