<svg id="Layer_1" enable-background="new 0 0 512 512" height="512" viewBox="0 0 512 512" width="512" xmlns="http://www.w3.org/2000/svg"><g><g><path d="m218.696 485h-117.098c-23.121 0-42.367-17.379-44.767-40.424l-36.25-348.022c-.44-4.226.932-8.44 3.776-11.596 2.845-3.156 6.894-4.958 11.143-4.958h249.315c4.249 0 8.299 1.802 11.143 4.958 2.845 3.156 4.217 7.371 3.776 11.597l-36.271 348.023c-2.402 23.045-21.647 40.422-44.767 40.422z" fill="#fff4f4"/></g><path d="m295.958 84.958c-2.844-3.156-6.894-4.958-11.143-4.958h-124.662v405h58.543c23.12 0 42.365-17.377 44.767-40.421l36.271-348.023c.441-4.227-.931-8.442-3.776-11.598z" fill="#f6efea"/><g><path d="m205.518 374.001c-.438 0-.877-.019-1.32-.058-8.253-.72-14.36-7.994-13.641-16.247l27.61-316.606c2.045-23.425 21.317-41.09 44.831-41.09h94.502c8.284 0 15 6.716 15 15s-6.716 15-15 15h-94.502c-7.838 0-14.263 5.889-14.943 13.697l-27.61 316.606c-.682 7.81-7.232 13.698-14.927 13.698z" fill="#4793ff"/></g><path d="m101.598 455h117.099c7.707 0 14.125-5.817 14.929-13.531l20.788-199.469h-188.522l20.776 199.467c.805 7.716 7.223 13.533 14.93 13.533z" fill="#00cb75"/><path d="m160.153 242v213h58.543c7.707 0 14.125-5.817 14.929-13.531l20.789-199.469z" fill="#00ab5e"/><g><path d="m372.428 512h-98.256c-6.076 0-11.552-3.665-13.867-9.282l-62.672-152c-2-4.85-1.32-10.392 1.791-14.615s8.193-6.515 13.428-6.042l210 19c4.648.42 8.836 2.981 11.329 6.926s3.008 8.826 1.392 13.205l-49.072 133c-2.175 5.893-7.792 9.808-14.073 9.808z" fill="#00cb75"/></g><path d="m434.181 355.987c-2.493-3.945-6.681-6.506-11.329-6.926l-106.352-9.623v172.562h55.928c6.281 0 11.898-3.915 14.072-9.808l49.072-133c1.616-4.379 1.102-9.259-1.391-13.205z" fill="#00ab5e"/><path d="m244.889 80h-30.114l-24.217 277.697c-.72 8.253 5.388 15.527 13.641 16.247.443.039.883.058 1.32.058 7.694 0 14.244-5.888 14.926-13.698z" fill="#525cdd"/><g><g><path d="m402.5 420c-27.474 0-53.479-12.922-70.216-34.329-10.398 1.767-21.172 1.767-31.568 0-16.738 21.407-42.742 34.329-70.216 34.329-49.074 0-88.999-39.925-88.999-89 0-49.074 39.925-89 88.999-89 2.378 0 4.757.095 7.127.284 7.324-11.344 17.033-21.018 28.514-28.331 15.04-9.582 32.455-14.647 50.359-14.647s35.319 5.065 50.36 14.647c11.479 7.313 21.189 16.987 28.513 28.331 2.37-.188 4.749-.284 7.127-.284 49.075 0 89 39.925 89 89s-39.925 89-89 89z" fill="#bee75e"/></g></g><path d="m402.5 242c-2.378 0-4.757.095-7.127.284-7.323-11.344-17.033-21.017-28.513-28.331-15.041-9.582-32.456-14.647-50.36-14.647v187.69c5.292 0 10.585-.442 15.784-1.325 16.737 21.407 42.742 34.329 70.216 34.329 49.075 0 89-39.925 89-89 0-49.074-39.925-89-89-89z" fill="#00cb75"/></g></svg>