<svg id="Capa_1" enable-background="new 0 0 512 512" height="512" viewBox="0 0 512 512" width="512" xmlns="http://www.w3.org/2000/svg"><g><path d="m497 506h-482c-8.284 0-15-6.716-15-15v-50c0-30.327 24.673-55 55-55h402c30.327 0 55 24.673 55 55v50c0 8.284-6.716 15-15 15z" fill="#d8f1fb"/><g><path d="m457 386h-172v120h212c8.284 0 15-6.716 15-15v-50c0-30.327-24.673-55-55-55z" fill="#b1d5f1"/></g><g><path d="m138.39 231v40c0 30.376 24.624 55 55 55h145.853c4.129 20.907 22.786 30.234 44.976 29.996 24.528-.264 44.173-20.467 44.173-44.996v-80c0-57.99-47.01-105-105-105h-80.002c-57.99 0-105 47.01-105 105z" fill="#f9f9f9" stroke="#f9f9f9" stroke-miterlimit="10"/></g><g><path d="m323.391 126h-38.391v200h54.242c4.128 20.907 22.786 30.234 44.976 29.996 24.528-.264 44.173-20.467 44.173-44.996v-80c0-57.99-47.01-105-105-105z" fill="#d8f1fb"/></g><path d="m285.888 236h-57.498v-15c0-8.284-6.716-15-15-15s-15 6.716-15 15v30c0 8.284 6.716 15 15 15h72.498c12.406 0 22.5 10.094 22.5 22.5v22.5h-99.998c-8.284 0-15 6.716-15 15s6.716 15 15 15h129.998v-52.5c0-28.948-23.552-52.5-52.5-52.5z" fill="#d8f1fb"/><g><path d="m338.388 288.5c0-28.948-23.552-52.5-52.5-52.5h-.888v30h.888c12.406 0 22.5 10.094 22.5 22.5v22.5h-23.388v30h53.388z" fill="#b1d5f1"/></g><path d="m482 341h-113.613v-52.681l71.608-41.343c14.349-8.284 19.265-26.632 10.981-40.981s-26.632-19.265-40.981-10.981l-86.603 50c-9.615 5.552-14.866 15.628-14.875 25.986h-.129v40h-163.388c-24.853 0-45 20.147-45 45s20.147 45 45 45h337c16.569 0 30-13.431 30-30s-13.431-30-30-30z" fill="#acceff"/><g><path d="m482 341h-113.613v-52.681l71.608-41.343c14.349-8.284 19.265-26.632 10.981-40.981s-26.632-19.265-40.981-10.981l-86.603 50c-9.615 5.552-14.866 15.628-14.875 25.986h-.129v40h-23.388v90h197c16.569 0 30-13.431 30-30s-13.431-30-30-30z" fill="#989dec"/></g><path d="m57.5 401c-31.705 0-57.5-25.795-57.5-57.5s25.795-57.5 57.5-57.5 57.5 25.795 57.5 57.5-25.795 57.5-57.5 57.5z" fill="#ffddce"/><path d="m285 156c-41.355 0-75-33.645-75-75s33.645-75 75-75 75 33.645 75 75-33.645 75-75 75z" fill="#ffddce"/><g><g><path d="m285 6v150c41.355 0 75-33.645 75-75s-33.645-75-75-75z" fill="#ffcbbc"/></g></g></g></svg>