<svg id="Capa_1" enable-background="new 0 0 512 512" height="512" viewBox="0 0 512 512" width="512" xmlns="http://www.w3.org/2000/svg"><g><circle cx="256" cy="195" fill="#8bb9ff" r="180"/><path d="m436 195c0-99.411-80.589-180-180-180v360c99.411 0 180-80.589 180-180z" fill="#7d81e7"/><path d="m256 0c-107.523 0-195 87.477-195 195s87.477 195 195 195 195-87.477 195-195-87.477-195-195-195zm0 360c-85.925 0-156.707-66.023-164.311-150h14.311c8.284 0 15-6.716 15-15s-6.716-15-15-15h-14.311c1.737-19.181 6.768-37.424 14.525-54.158l12.382 7.149c2.362 1.364 4.941 2.013 7.486 2.013 5.184 0 10.227-2.691 13.004-7.503 4.142-7.175 1.684-16.349-5.49-20.49l-12.346-7.128c10.866-15.348 24.284-28.766 39.632-39.632l7.128 12.346c2.778 4.812 7.82 7.503 13.004 7.503 2.544 0 5.124-.648 7.486-2.013 7.174-4.142 9.632-13.316 5.49-20.49l-7.149-12.381c16.735-7.758 34.977-12.788 54.158-14.525v14.309c0 8.284 6.716 15 15 15s15-6.716 15-15v-14.311c19.181 1.737 37.424 6.768 54.158 14.525l-7.149 12.382c-4.142 7.174-1.684 16.349 5.49 20.49 2.362 1.364 4.941 2.013 7.486 2.013 5.184 0 10.226-2.69 13.004-7.503l7.128-12.346c15.348 10.866 28.766 24.284 39.632 39.632l-12.346 7.128c-7.174 4.142-9.632 13.315-5.49 20.49 2.778 4.812 7.82 7.503 13.004 7.503 2.544 0 5.124-.648 7.486-2.013l12.382-7.149c7.758 16.735 12.788 34.977 14.525 54.158h-14.309c-8.284 0-15 6.716-15 15s6.716 15 15 15h14.311c-7.604 83.978-78.386 150.001-164.311 150.001z" fill="#ffe278"/><path d="m271 45v-14.311c19.181 1.737 37.424 6.768 54.158 14.525l-7.149 12.382c-4.142 7.174-1.684 16.349 5.49 20.49 2.362 1.364 4.941 2.013 7.486 2.013 5.184 0 10.226-2.69 13.004-7.503l7.128-12.346c15.348 10.866 28.766 24.284 39.632 39.632l-12.346 7.128c-7.174 4.142-9.632 13.315-5.49 20.49 2.778 4.812 7.82 7.503 13.004 7.503 2.544 0 5.124-.648 7.486-2.013l12.382-7.149c7.758 16.735 12.788 34.977 14.525 54.158h-14.31c-8.284 0-15 6.716-15 15s6.716 15 15 15h14.311c-7.604 83.978-78.386 150.001-164.311 150.001v30c107.523 0 195-87.477 195-195s-87.477-195-195-195v60c8.284 0 15-6.716 15-15z" fill="#ffb454"/><path d="m256 200c-8.284 0-15-6.716-15-15v-80c0-8.284 6.716-15 15-15s15 6.716 15 15v80c0 8.284-6.716 15-15 15z" fill="#ffb454"/><path d="m271 185v-80c0-8.284-6.716-15-15-15v110c8.284 0 15-6.716 15-15z" fill="#ff7038"/><path d="m326 210h-50c-8.284 0-15-6.716-15-15s6.716-15 15-15h50c8.284 0 15 6.716 15 15s-6.716 15-15 15z" fill="#ff7038"/><circle cx="256" cy="195" fill="#ffe278" r="30"/><path d="m286 195c0-16.569-13.431-30-30-30v60c16.569 0 30-13.431 30-30z" fill="#ffb454"/><path d="m446 512h-380c-24.813 0-45-20.187-45-45v-160c0-24.813 20.187-45 45-45h380c24.813 0 45 20.187 45 45v160c0 24.813-20.187 45-45 45z" fill="#f4f4f6"/><path d="m446 262h-190v250h190c24.813 0 45-20.187 45-45v-160c0-24.813-20.187-45-45-45z" fill="#e2dff4"/><path d="m66 292c-8.271 0-15 6.729-15 15v160c0 8.271 6.729 15 15 15h380c8.271 0 15-6.729 15-15v-160c0-8.271-6.729-15-15-15z" fill="#e2dff4"/><path d="m446 292h-190v190h190c8.271 0 15-6.729 15-15v-160c0-8.271-6.729-15-15-15z" fill="#bebcdd"/><path d="m141.8 421.916c-6.785.038-13.934.066-19.933.078v-84.994c0-8.284-6.716-15-15-15s-15 6.716-15 15v99.916c0 7.307 5.265 13.55 12.466 14.784 1.08.186 1.794.309 12.96.309 5.387 0 13.209-.029 24.674-.093 8.284-.047 14.962-6.8 14.916-15.084-.046-8.285-6.805-14.995-15.083-14.916z" fill="#6b61b1"/><path d="m191.888 322c-8.284 0-15 6.716-15 15v100c0 8.284 6.716 15 15 15s15-6.716 15-15v-100c0-8.284-6.716-15-15-15z" fill="#6b61b1"/><path d="m405.133 422h-27.136v-20h24.029c8.284 0 15-6.716 15-15s-6.716-15-15-15h-24.029v-20h27.136c8.284 0 15-6.716 15-15s-6.716-15-15-15h-42.136c-8.284 0-15 6.716-15 15v100c0 8.284 6.716 15 15 15h42.136c8.284 0 15-6.716 15-15s-6.716-15-15-15z" fill="#38336b"/><path d="m317.725 322.948c-7.858-2.612-16.352 1.644-18.964 9.507l-20.818 62.665-21.882-63.039c-2.716-7.825-11.263-11.964-19.089-9.252-7.826 2.717-11.968 11.264-9.251 19.09l34.19 98.498c.012.034.023.067.036.102 2.444 6.88 8.969 11.481 16.261 11.481.04 0 .079 0 .118-.001 7.34-.05 13.859-4.753 16.221-11.702.011-.032.022-.065.033-.099l32.651-98.286c2.611-7.861-1.645-16.351-9.506-18.964z" fill="#6b61b1"/><path d="m317.725 322.948c-7.858-2.612-16.352 1.644-18.964 9.507l-20.818 62.665-21.882-63.039c-.018-.052-.043-.099-.061-.151v91.46l5.91 17.027c.012.034.023.067.036.102 2.444 6.88 8.969 11.481 16.261 11.481.04 0 .079 0 .118-.001 7.34-.05 13.859-4.753 16.221-11.702.011-.032.022-.065.033-.099l32.651-98.286c2.612-7.861-1.644-16.351-9.505-18.964z" fill="#38336b"/></g></svg>