<svg id="Capa_1" enable-background="new 0 0 512.008 512.008" height="512" viewBox="0 0 512.008 512.008" width="512" xmlns="http://www.w3.org/2000/svg"><g><g fill="#d5e8fe"><path d="m106.004 512.008c-8.291 0-15-6.709-15-15v-301c0-8.291 6.709-15 15-15s15 6.709 15 15v301c0 8.291-6.709 15-15 15z"/><path d="m106.004 151.008c-8.291 0-15-6.709-15-15v-121c0-8.291 6.709-15 15-15s15 6.709 15 15v121c0 8.291-6.709 15-15 15z"/><g><path d="m61.004 151.008v-136c0-8.291-6.709-15-15-15s-15 6.709-15 15v106z"/><path d="m181.004 121.008v-106c0-8.291-6.709-15-15-15s-15 6.709-15 15v136z"/></g><path d="m406.004 211.008c-42.056 0-75-46.128-75-105s32.944-106 75-106 75 47.128 75 106-32.944 105-75 105z"/><path d="m406.004 512.008c-8.291 0-15-6.709-15-15v-301c0-8.291 6.709-15 15-15s15 6.709 15 15v301c0 8.291-6.709 15-15 15z"/><path d="m271.004 271.008v226c0 8.291 6.709 15 15 15s15-6.709 15-15v-196z"/></g><path d="m293.885 2.249c-4.424-2.769-9.961-2.974-14.59-.659-8.509 4.255-16.168 9.578-23.291 15.432-28.14 23.128-45 58.479-45 96.061v112.925c0 30.676 18.56 57.036 45 68.643 9.203 4.039 19.323 6.357 30 6.357h15v-286c0-5.2-2.695-10.019-7.119-12.759z" fill="#edf5ff"/><path d="m301.004 301.008v-286c0-5.2-2.695-10.02-7.119-12.759-4.424-2.769-9.961-2.974-14.59-.659-8.509 4.255-16.168 9.578-23.291 15.432v277.628c9.203 4.039 19.323 6.357 30 6.357h15z" fill="#d5e8fe"/><path d="m406.004 30.008c-24.39 0-45 35.351-45 76s20.61 75 45 75 45-34.351 45-75-20.61-76-45-76z" fill="#b5dbff"/><path d="m106.004 211.008c-41.421 0-75-33.579-75-75v-15h150v15c0 41.422-33.578 75-75 75z" fill="#edf5ff"/></g></svg>